<?xml version="1.0" encoding="UTF-8"?>
<svg xmlns="http://www.w3.org/2000/svg" xmlns:xlink="http://www.w3.org/1999/xlink" viewBox="0 0 64 64" width="64px" height="64px">
<defs>
<radialGradient id="radial0" gradientUnits="userSpaceOnUse" cx="86" cy="84.65625" fx="86" fy="84.65625" r="84.00856" gradientTransform="matrix(0.372093,0,0,0.372093,0,0)">
<stop offset="0" style="stop-color:rgb(100%,100%,100%);stop-opacity:1;"/>
<stop offset="0.35" style="stop-color:rgb(100%,100%,100%);stop-opacity:1;"/>
<stop offset="0.907" style="stop-color:rgb(100%,100%,100%);stop-opacity:1;"/>
<stop offset="1" style="stop-color:rgb(100%,100%,100%);stop-opacity:1;"/>
</radialGradient>
<linearGradient id="linear0" gradientUnits="userSpaceOnUse" x1="142.394501" y1="153.571808" x2="31.236811" y2="30.97613" gradientTransform="matrix(0.372093,0,0,0.372093,0,0)">
<stop offset="0" style="stop-color:rgb(50.980395%,22.745098%,95.294118%);stop-opacity:1;"/>
<stop offset="0.36" style="stop-color:rgb(29.411766%,40.000001%,88.235295%);stop-opacity:1;"/>
<stop offset="0.906" style="stop-color:rgb(0.392157%,94.509804%,76.862746%);stop-opacity:1;"/>
</linearGradient>
</defs>
<g id="surface92406">
<path style=" stroke:none;fill-rule:nonzero;fill:url(#radial0);" d="M 58 54 C 56.894531 54 56 53.105469 56 52 C 56 50.894531 56.894531 50 58 50 L 60.5 50 C 62.425781 50 64 48.425781 64 46.5 C 64 44.574219 62.425781 43 60.5 43 L 50 43 C 48.617188 43 47.5 41.882812 47.5 40.5 C 47.5 39.117188 48.617188 38 50 38 L 58 38 C 59.648438 38 61 36.648438 61 35 C 61 33.351562 59.648438 32 58 32 L 42 32 L 42 26 L 60 26 C 62.335938 26 64.21875 23.972656 63.980469 21.589844 C 63.769531 19.515625 61.898438 18 59.8125 18 L 58 18 C 56.894531 18 56 17.105469 56 16 C 56 14.894531 56.894531 14 58 14 L 58.355469 14 C 59.664062 14 60.855469 13.058594 60.988281 11.757812 C 61.136719 10.261719 59.964844 9 58.5 9 L 44.5 9 C 43.671875 9 43 8.328125 43 7.5 C 43 6.671875 43.671875 6 44.5 6 L 48.355469 6 C 49.664062 6 50.855469 5.058594 50.988281 3.757812 C 51.136719 2.261719 49.964844 1 48.5 1 L 15.644531 1 C 14.335938 1 13.144531 1.941406 13.011719 3.242188 C 12.863281 4.738281 14.035156 6 15.5 6 L 19 6 C 20.105469 6 21 6.894531 21 8 C 21 9.105469 20.105469 10 19 10 L 6.1875 10 C 4.101562 10 2.230469 11.515625 2.019531 13.589844 C 1.78125 15.972656 3.664062 18 6 18 L 8.5 18 C 10.433594 18 12 19.566406 12 21.5 C 12 23.433594 10.433594 25 8.5 25 L 5.1875 25 C 3.101562 25 1.230469 26.515625 1.019531 28.589844 C 0.78125 30.972656 2.664062 33 5 33 L 22 33 L 22 44 L 6 44 C 4.351562 44 3 45.351562 3 47 C 3 48.648438 4.351562 50 6 50 C 7.105469 50 8 50.894531 8 52 C 8 53.105469 7.105469 54 6 54 L 4.1875 54 C 2.101562 54 0.230469 55.515625 0.0195312 57.589844 C -0.21875 59.972656 1.664062 62 4 62 L 57.8125 62 C 59.898438 62 61.769531 60.484375 61.980469 58.410156 C 62.21875 56.027344 60.335938 54 58 54 Z M 58 54 "/>
<path style=" stroke:none;fill-rule:nonzero;fill:url(#linear0);" d="M 50 12 L 14 12 C 11.789062 12 10 13.789062 10 16 L 10 52 C 10 54.210938 11.789062 56 14 56 L 50 56 C 52.210938 56 54 54.210938 54 52 L 54 16 C 54 13.789062 52.210938 12 50 12 Z M 50 12 "/>
<path style=" stroke:none;fill-rule:evenodd;fill:rgb(100%,100%,100%);fill-opacity:1;" d="M 40.449219 41.953125 C 38.972656 43.3125 38.011719 44.246094 35.863281 45.34375 C 34.632812 45.960938 33.246094 46.328125 31.9375 46.328125 C 28.019531 46.328125 26.105469 42.71875 25.726562 39.601562 C 24.746094 31.601562 31.777344 20.609375 36.679688 20.609375 C 37.820312 20.609375 38.84375 21.601562 39.03125 23.152344 C 39.324219 25.5625 39.277344 27.269531 36.785156 29.355469 C 36.511719 29.582031 36.433594 29.949219 36.574219 30.167969 C 36.785156 30.492188 37.453125 30.527344 38.808594 29.84375 C 41.460938 28.503906 42.417969 26.4375 42.125 24.046875 C 41.800781 21.390625 39.484375 19.171875 36.378906 19.171875 C 34.867188 19.171875 33.207031 19.621094 31.722656 20.523438 C 25.261719 24.460938 21.089844 33.445312 21.929688 40.296875 C 22.195312 42.472656 23.097656 44.851562 24.804688 46.449219 C 25.957031 47.515625 28.035156 48.828125 30.488281 48.828125 C 33.144531 48.828125 35.386719 47.804688 37.394531 46.535156 C 38.757812 45.664062 39.898438 44.605469 40.863281 43.527344 C 42.441406 42.058594 41.304688 41.148438 40.449219 41.953125 Z M 40.449219 41.953125 "/>
</g>
</svg>
