<svg width="48" height="48" viewBox="0 0 48 48" fill="none" xmlns="http://www.w3.org/2000/svg">
<circle cx="24" cy="24" r="24" fill="#F77C79"/>
<path fill-rule="evenodd" clip-rule="evenodd" d="M27.6802 19.7112C25.2789 22.1125 21.3856 22.1125 18.9843 19.7112C16.583 17.3099 16.583 13.4166 18.9843 11.0153C21.3856 8.61403 25.2789 8.61403 27.6802 11.0153C30.0815 13.4166 30.0815 17.3099 27.6802 19.7112ZM9.67988 29.0159C12.0812 31.4172 15.9744 31.4172 18.3757 29.0159C20.777 26.6146 20.777 22.7213 18.3757 20.32C15.9744 17.9187 12.0812 17.9187 9.67988 20.32C7.27858 22.7213 7.27858 26.6146 9.67988 29.0159ZM18.9843 38.3206C21.3856 40.7219 25.2789 40.7219 27.6802 38.3206C30.0815 35.9193 30.0815 32.026 27.6802 29.6247C25.2789 27.2234 21.3856 27.2234 18.9843 29.6247C16.583 32.026 16.583 35.9193 18.9843 38.3206ZM28.2887 29.0159C30.69 31.4172 34.5833 31.4172 36.9846 29.0159C39.3859 26.6146 39.3859 22.7213 36.9846 20.32C34.5833 17.9187 30.69 17.9187 28.2887 20.32C25.8874 22.7213 25.8874 26.6146 28.2887 29.0159Z" fill="white"/>
</svg>
